<svg width="33" height="31" viewBox="0 0 33 31" fill="none" xmlns="http://www.w3.org/2000/svg">
<path d="M25.0749 9.0115V12.8346H31.0822C31.4808 12.8346 31.8431 12.9975 32.1057 13.2588C32.3669 13.52 32.5299 13.8836 32.5299 14.2822C32.5299 14.6808 32.3669 15.043 32.1057 15.3056C31.8444 15.5669 31.4808 15.7298 31.0822 15.7298H30.343L30.4049 15.7904L30.4076 15.7931C31.0836 16.4705 31.5037 17.4023 31.5037 18.4271V29.604C31.5037 29.8895 31.2721 30.1211 30.9866 30.1211H22.1622C21.8767 30.1211 21.6451 29.8895 21.6451 29.604C21.6451 29.3185 21.8767 29.0869 22.1622 29.0869H24.0407V9.01418H20.6809C20.5732 9.1448 20.4574 9.27138 20.3375 9.39125L20.3348 9.39394C19.3518 10.3756 17.9958 10.983 16.4983 10.983C15.0022 10.983 13.6449 10.3756 12.6618 9.3926L12.6591 9.38991C12.0423 8.7718 11.5737 8.00695 11.3098 7.15318H7.99039C7.87727 7.15318 7.77358 7.20031 7.69952 7.27437C7.62546 7.34844 7.57832 7.45347 7.57832 7.56659C7.57832 7.6797 7.62546 7.7834 7.69952 7.85746C7.77358 7.93152 7.87727 7.97865 7.99039 7.97865H10.2702C10.5557 7.97865 10.7873 8.21027 10.7873 8.49575C10.7873 8.78123 10.5557 9.01285 10.2702 9.01285H8.95726V17.4926C8.95726 17.778 8.72564 18.0097 8.44016 18.0097C8.15468 18.0097 7.92306 17.778 7.92306 17.4926V15.7285H5.22581C4.48518 15.7285 3.81051 16.0328 3.32171 16.5217C2.83288 17.0105 2.5299 17.6851 2.5299 18.4258V29.0856H7.92427V21.9593C7.92427 21.6738 8.15589 21.4422 8.44136 21.4422C8.72684 21.4422 8.95846 21.6738 8.95846 21.9593V29.0856H14.0095V26.2537C14.0095 25.5857 14.2775 24.9744 14.7111 24.526L14.7407 24.4936C15.1918 24.0425 15.8153 23.7624 16.5007 23.7624C17.17 23.7624 17.78 24.0304 18.2284 24.464L18.2607 24.4937C18.7119 24.9448 18.992 25.5683 18.992 26.2537V29.0856H19.9669C20.2524 29.0856 20.484 29.3172 20.484 29.6027C20.484 29.8882 20.2524 30.1198 19.9669 30.1198H2.01393C1.72845 30.1198 1.49684 29.8882 1.49684 29.6027V18.4258C1.49684 17.3997 1.917 16.4651 2.59164 15.7905L2.65493 15.7285H1.91834C1.51976 15.7285 1.15751 15.5656 0.894896 15.3043C0.633655 15.0431 0.470703 14.6795 0.470703 14.2809C0.470703 13.8823 0.633644 13.5201 0.894896 13.2575C1.15614 12.9962 1.51972 12.8333 1.91834 12.8333H7.92564V9.01019C7.55398 8.99269 7.21732 8.83379 6.96956 8.58734C6.70832 8.3261 6.54536 7.96252 6.54536 7.5639C6.54536 7.16529 6.70831 6.80308 6.96956 6.54046C7.2308 6.27922 7.59439 6.11627 7.993 6.11627H11.1023C11.0835 5.93044 11.0727 5.74193 11.0727 5.5507C11.0727 4.05191 11.68 2.69318 12.663 1.71142L12.694 1.68314C13.6744 0.717618 15.0196 0.121094 16.5036 0.121094C18.0011 0.121094 19.3584 0.728408 20.3415 1.71145C21.3259 2.69314 21.9332 4.05187 21.9332 5.55073C21.9332 5.74195 21.9238 5.93048 21.9036 6.11629H25.0129C25.4115 6.11629 25.7738 6.27924 26.0364 6.54049C26.2976 6.80173 26.4606 7.16531 26.4606 7.56393C26.4606 7.96254 26.2976 8.32475 26.0364 8.58737C25.7886 8.83515 25.4519 8.99271 25.0803 9.01022L25.0749 9.0115ZM15.7496 1.91208H17.2484C17.5339 1.91208 17.7655 2.1437 17.7655 2.42918V4.28615H19.6224C19.9079 4.28615 20.1395 4.51777 20.1395 4.80325V6.30204C20.1395 6.58752 19.9079 6.81914 19.6224 6.81914H17.7655V8.67611C17.7655 8.96159 17.5339 9.1932 17.2484 9.1932H15.7496C15.4641 9.1932 15.2325 8.96159 15.2325 8.67611V6.81914H13.3769C13.0914 6.81914 12.8598 6.58752 12.8598 6.30204V4.80325C12.8598 4.51777 13.0914 4.28615 13.3769 4.28615H15.2325V2.42918C15.2325 2.1437 15.4641 1.91208 15.7496 1.91208ZM16.7313 2.94628H16.2667V4.80325C16.2667 5.08873 16.0351 5.32035 15.7496 5.32035H13.894V5.78494H15.7496C16.0351 5.78494 16.2667 6.01656 16.2667 6.30204V8.15901H16.7313V6.30204C16.7313 6.01656 16.9629 5.78494 17.2484 5.78494H19.1053V5.32035H17.2484C16.9629 5.32035 16.7313 5.08873 16.7313 4.80325V2.94628ZM21.3569 7.97868H25.009C25.1221 7.97868 25.2258 7.93155 25.2999 7.85748C25.3739 7.78342 25.421 7.67973 25.421 7.56662C25.421 7.4535 25.3739 7.34981 25.2999 7.2744C25.2258 7.20034 25.1221 7.15321 25.009 7.15321H21.6896C21.6007 7.44004 21.4903 7.71609 21.3583 7.98001L21.3569 7.97868ZM19.6077 2.44401C18.8132 1.6495 17.713 1.15798 16.4983 1.15798C15.2958 1.15798 14.2078 1.64006 13.4146 2.41977L13.3904 2.44536C12.5945 3.2412 12.103 4.34004 12.103 5.55332C12.103 6.76795 12.5945 7.86813 13.389 8.66129C14.1849 9.45714 15.2837 9.94866 16.4983 9.94866C17.713 9.94866 18.8131 9.45714 19.6063 8.66263C20.4022 7.86679 20.8937 6.76661 20.8937 5.55198C20.8937 4.33869 20.4022 3.23985 19.6077 2.44401ZM25.0748 13.8674V14.6942H31.0821C31.1952 14.6942 31.2989 14.6471 31.3729 14.573C31.447 14.4989 31.4941 14.3939 31.4941 14.2821C31.4941 14.169 31.447 14.0653 31.3729 13.9913C31.2989 13.9172 31.1952 13.8701 31.0821 13.8701H25.0748V13.8674ZM1.91566 14.6942H7.92296V13.8674H1.91566C1.80255 13.8674 1.69885 13.9145 1.62479 13.9886C1.55073 14.0626 1.5036 14.1663 1.5036 14.2795C1.5036 14.3926 1.55073 14.4963 1.62479 14.5703C1.69885 14.6444 1.80255 14.6915 1.91566 14.6915V14.6942ZM4.15911 26.7395C3.87363 26.7395 3.64201 26.5079 3.64201 26.2224C3.64201 25.9369 3.87363 25.7053 4.15911 25.7053H6.29348C6.57896 25.7053 6.81058 25.9369 6.81058 26.2224C6.81058 26.5079 6.57896 26.7395 6.29348 26.7395H4.15911ZM4.15911 24.1957C3.87363 24.1957 3.64201 23.9641 3.64201 23.6786C3.64201 23.3932 3.87363 23.1615 4.15911 23.1615H6.29348C6.57896 23.1615 6.81058 23.3932 6.81058 23.6786C6.81058 23.9641 6.57896 24.1957 6.29348 24.1957H4.15911ZM4.15911 21.652C3.87363 21.652 3.64201 21.4204 3.64201 21.1349C3.64201 20.8494 3.87363 20.6178 4.15911 20.6178H6.29348C6.57896 20.6178 6.81058 20.8494 6.81058 21.1349C6.81058 21.4204 6.57896 21.652 6.29348 21.652H4.15911ZM4.15911 19.1083C3.87363 19.1083 3.64201 18.8766 3.64201 18.5912C3.64201 18.3057 3.87363 18.0741 4.15911 18.0741H6.29348C6.57896 18.0741 6.81058 18.3057 6.81058 18.5912C6.81058 18.8766 6.57896 19.1083 6.29348 19.1083H4.15911ZM26.7053 26.7396C26.4198 26.7396 26.1882 26.508 26.1882 26.2225C26.1882 25.937 26.4198 25.7054 26.7053 25.7054H28.8396C29.1251 25.7054 29.3567 25.937 29.3567 26.2225C29.3567 26.508 29.1251 26.7396 28.8396 26.7396H26.7053ZM26.7053 24.1958C26.4198 24.1958 26.1882 23.9642 26.1882 23.6787C26.1882 23.3933 26.4198 23.1616 26.7053 23.1616H28.8396C29.1251 23.1616 29.3567 23.3933 29.3567 23.6787C29.3567 23.9642 29.1251 24.1958 28.8396 24.1958H26.7053ZM26.7053 21.6521C26.4198 21.6521 26.1882 21.4205 26.1882 21.135C26.1882 20.8495 26.4198 20.6179 26.7053 20.6179H28.8396C29.1251 20.6179 29.3567 20.8495 29.3567 21.135C29.3567 21.4205 29.1251 21.6521 28.8396 21.6521H26.7053ZM26.7053 19.1084C26.4198 19.1084 26.1882 18.8767 26.1882 18.5913C26.1882 18.3058 26.4198 18.0742 26.7053 18.0742H28.8396C29.1251 18.0742 29.3567 18.3058 29.3567 18.5913C29.3567 18.8767 29.1251 19.1084 28.8396 19.1084H26.7053ZM17.9549 29.0852V26.2533C17.9549 25.8534 17.7907 25.4884 17.5267 25.2259L17.5052 25.2016C17.2439 24.9512 16.8871 24.7976 16.4992 24.7976C16.0993 24.7976 15.7343 24.9619 15.4718 25.2259L15.4475 25.2474C15.1971 25.5086 15.0435 25.8642 15.0435 26.2533V29.0852H17.9562L17.9549 29.0852ZM17.5658 19.0718H22.1617C22.4472 19.0718 22.6788 19.3034 22.6788 19.5889V21.4769C22.6788 21.7624 22.4472 21.994 22.1617 21.994H17.5658C17.2803 21.994 17.0487 21.7624 17.0487 21.4769V19.5889C17.0487 19.3034 17.2803 19.0718 17.5658 19.0718ZM21.6446 20.106H18.0829V20.9598H21.6446V20.106ZM10.8342 19.0718H15.4302C15.7156 19.0718 15.9473 19.3034 15.9473 19.5889V21.4769C15.9473 21.7624 15.7156 21.994 15.4302 21.994H10.8342C10.5487 21.994 10.3171 21.7624 10.3171 21.4769V19.5889C10.3171 19.3034 10.5487 19.0718 10.8342 19.0718ZM14.9131 20.106H11.3513V20.9598H14.9131V20.106ZM17.5645 15.296H22.1605C22.446 15.296 22.6776 15.5276 22.6776 15.8131V17.701C22.6776 17.9865 22.446 18.2181 22.1605 18.2181H17.5645C17.2791 18.2181 17.0474 17.9865 17.0474 17.701V15.8131C17.0474 15.5276 17.2791 15.296 17.5645 15.296ZM21.6434 16.3302H18.0816V17.1839H21.6434V16.3302ZM10.8329 15.296H15.4289C15.7144 15.296 15.946 15.5276 15.946 15.8131V17.701C15.946 17.9865 15.7144 18.2181 15.4289 18.2181H10.8329C10.5475 18.2181 10.3158 17.9865 10.3158 17.701V15.8131C10.3158 15.5276 10.5475 15.296 10.8329 15.296ZM14.9118 16.3302H11.35V17.1839H14.9118V16.3302ZM17.5633 11.5201H22.1593C22.4447 11.5201 22.6764 11.7517 22.6764 12.0372V13.9252C22.6764 14.2106 22.4447 14.4423 22.1593 14.4423H17.5633C17.2778 14.4423 17.0462 14.2106 17.0462 13.9252V12.0372C17.0462 11.7517 17.2778 11.5201 17.5633 11.5201ZM21.6422 12.5543H18.0804V13.4081H21.6422V12.5543ZM10.8317 11.5201H15.4277C15.7132 11.5201 15.9448 11.7517 15.9448 12.0372V13.9252C15.9448 14.2106 15.7132 14.4423 15.4277 14.4423H10.8317C10.5462 14.4423 10.3146 14.2106 10.3146 13.9252V12.0372C10.3146 11.7517 10.5462 11.5201 10.8317 11.5201ZM14.9106 12.5543H11.3488V13.4081H14.9106V12.5543ZM25.0709 15.7283V29.0839H30.4652V18.4241C30.4652 17.6821 30.1622 17.0074 29.6748 16.52C29.1859 16.0298 28.5113 15.7268 27.768 15.7268H25.0707L25.0709 15.7283ZM8.95326 19.7613C8.95326 20.0468 8.72164 20.2784 8.43616 20.2784C8.15068 20.2784 7.91907 20.0468 7.91907 19.7613V19.6899C7.91907 19.4044 8.15068 19.1728 8.43616 19.1728C8.72164 19.1728 8.95326 19.4044 8.95326 19.6899V19.7613Z" fill="black" fill-opacity="0.65"/>
</svg>
