<svg width="35" height="31" viewBox="0 0 35 31" fill="none" xmlns="http://www.w3.org/2000/svg">
<path d="M34.216 25.9547C34.216 26.251 33.9758 26.4913 33.6793 26.4913H33.4493C33.1529 26.4913 32.9127 26.251 32.9127 25.9547C32.9127 25.6583 33.1529 25.418 33.4493 25.418H33.6793C33.9758 25.418 34.216 25.6583 34.216 25.9547ZM31.9673 25.9547C31.9673 26.251 31.7271 26.4913 31.4306 26.4913H24.2025V27.2328H25.2315C25.528 27.2328 25.7682 27.4731 25.7682 27.7695V29.5844C25.7682 29.8808 25.528 30.1211 25.2315 30.1211H9.62121C9.32489 30.1211 9.08456 29.8808 9.08456 29.5844V27.7695C9.08456 27.4731 9.32489 27.2328 9.62121 27.2328H10.6502V26.4913H1.17337C0.877046 26.4913 0.636719 26.251 0.636719 25.9547C0.636719 25.6583 0.877046 25.418 1.17337 25.418H14.1075V21.5633C14.1075 19.7334 15.5963 18.2446 17.4264 18.2446C19.2564 18.2446 20.7451 19.7334 20.7451 21.5633V23.857C20.7451 24.1533 20.5049 24.3937 20.2085 24.3937C19.912 24.3937 19.6718 24.1533 19.6718 23.857V21.5633C19.6718 20.3252 18.6644 19.3179 17.4264 19.3179C16.1882 19.3179 15.1808 20.3252 15.1808 21.5633V25.418H28.6889V17.5796C28.6889 17.2833 28.9291 17.043 29.2256 17.043C29.5221 17.043 29.7622 17.2833 29.7622 17.5796V25.418H31.4306C31.7271 25.418 31.9673 25.6583 31.9673 25.9547ZM23.1292 26.4913H11.7235V27.2328H13.0948C13.3911 27.2328 13.6314 27.4731 13.6314 27.7695C13.6314 28.0658 13.3911 28.3061 13.0948 28.3061H10.1579V29.0478H24.6949V28.3061H17.7329C17.4365 28.3061 17.1962 28.0658 17.1962 27.7695C17.1962 27.4731 17.4365 27.2328 17.7329 27.2328H23.1292V26.4913ZM32.1482 15.0584C32.2027 15.222 32.1754 15.4018 32.0745 15.5419C31.9735 15.6817 31.8115 15.7647 31.639 15.7647H29.2259H24.0858C23.9133 15.7647 23.7509 15.6815 23.6503 15.5416L17.4264 6.89503L11.2026 15.5416C11.1016 15.6815 10.9396 15.7647 10.767 15.7647H6.1638V23.8572C6.1638 24.1535 5.92348 24.3938 5.62715 24.3938C5.33082 24.3938 5.09049 24.1535 5.09049 23.8572V15.7647H3.2137C3.04121 15.7647 2.87917 15.6817 2.7784 15.5419C2.67748 15.4018 2.65009 15.222 2.70459 15.0584L5.38621 7.01346C5.45928 6.79426 5.66429 6.64645 5.89533 6.64645H13.8998C14.1961 6.64645 14.4364 6.88678 14.4364 7.18311C14.4364 7.47946 14.1961 7.71976 13.8998 7.71976H6.28208L3.95834 14.6913H5.627H10.4921L16.8897 5.80326V0.657749C16.8897 0.361423 17.13 0.121094 17.4264 0.121094C17.7227 0.121094 17.963 0.361423 17.963 0.657749V1.19382H20.935C21.1395 1.19382 21.3261 1.31001 21.4166 1.49358C21.5067 1.67703 21.4848 1.89592 21.3603 2.05796L20.752 2.84779L21.3603 3.63766C21.4848 3.79966 21.5067 4.01859 21.4166 4.20203C21.3261 4.3856 21.1395 4.50179 20.935 4.50179H19.1025C18.806 4.50179 18.5659 4.26146 18.5659 3.96514C18.5659 3.66881 18.806 3.42848 19.1025 3.42848H19.8443L19.6494 3.17527C19.5008 2.98226 19.5008 2.71335 19.6494 2.52034L19.8443 2.26713H17.963V5.80347L18.5698 6.64645H28.9576C29.1885 6.64645 29.3936 6.79426 29.4667 7.01346L32.1482 15.0584ZM30.8946 14.6913L28.5707 7.71976H19.3424L24.3606 14.6913H29.2256H30.8946ZM17.4264 15.72C16.2063 15.72 15.2137 14.7274 15.2137 13.5074C15.2137 12.2872 16.2063 11.2946 17.4264 11.2946C18.6464 11.2946 19.6392 12.2872 19.6392 13.5074C19.6392 14.7274 18.6464 15.72 17.4264 15.72ZM17.4264 14.6467C18.0547 14.6467 18.5659 14.1357 18.5659 13.5074C18.5659 12.8791 18.0547 12.3679 17.4264 12.3679C16.7981 12.3679 16.287 12.8791 16.287 13.5074C16.287 14.1357 16.7981 14.6467 17.4264 14.6467ZM11.3117 20.5582C11.6081 20.5582 11.8484 20.3178 11.8484 20.0215V18.865C11.8484 17.9314 11.0888 17.1719 10.1552 17.1719C9.22157 17.1719 8.4621 17.9314 8.4621 18.865V20.0215C8.4621 20.3178 8.70243 20.5582 8.99875 20.5582C9.29508 20.5582 9.53541 20.3178 9.53541 20.0215V18.865C9.53541 18.5232 9.81346 18.2452 10.1552 18.2452C10.497 18.2452 10.7751 18.5232 10.7751 18.865V20.0215C10.7751 20.3178 11.0154 20.5582 11.3117 20.5582ZM8.4621 22.8539C8.4621 21.9203 9.22157 21.1609 10.1552 21.1609C11.0888 21.1609 11.8484 21.9203 11.8484 22.8539V24.0105C11.8484 24.3068 11.6081 24.5472 11.3117 24.5472H8.99875C8.70243 24.5472 8.4621 24.3068 8.4621 24.0105V22.8539ZM9.53541 23.4738H10.7751V22.8539C10.7751 22.5122 10.497 22.2342 10.1552 22.2342C9.81346 22.2342 9.53541 22.5122 9.53541 22.8539V23.4738ZM23.541 20.5582C23.2445 20.5582 23.0043 20.3178 23.0043 20.0215V18.865C23.0043 17.9314 23.7638 17.1719 24.6976 17.1719C25.6313 17.1719 26.3908 17.9314 26.3908 18.865V20.0215C26.3908 20.3178 26.1506 20.5582 25.8541 20.5582H23.541ZM24.0777 19.4849H25.3175V18.865C25.3175 18.5232 25.0393 18.2452 24.6976 18.2452C24.3559 18.2452 24.0777 18.5232 24.0777 18.865V19.4849ZM23.0043 24.0105C23.0043 24.3068 23.2445 24.5472 23.541 24.5472C23.8375 24.5472 24.0777 24.3068 24.0777 24.0105V22.8539C24.0777 22.5122 24.3559 22.2342 24.6976 22.2342C25.0393 22.2342 25.3175 22.5122 25.3175 22.8539V24.0105C25.3175 24.3068 25.5577 24.5472 25.8541 24.5472C26.1506 24.5472 26.3908 24.3068 26.3908 24.0105V22.8539C26.3908 21.9203 25.6313 21.1609 24.6976 21.1609C23.7638 21.1609 23.0043 21.9203 23.0043 22.8539V24.0105ZM15.3947 28.3061H15.6246C15.9209 28.3061 16.1613 28.0658 16.1613 27.7695C16.1613 27.4731 15.9209 27.2328 15.6246 27.2328H15.3947C15.0984 27.2328 14.8581 27.4731 14.8581 27.7695C14.8581 28.0658 15.0984 28.3061 15.3947 28.3061Z" fill="black" fill-opacity="0.65"/>
</svg>
