<svg width="31" height="31" viewBox="0 0 31 31" fill="none" xmlns="http://www.w3.org/2000/svg">
<path d="M29.7692 29.2419H29.1437V27.4355C29.1437 26.8672 28.2645 26.8672 28.2645 27.4355V29.2419H25.599V25.6291H26.9228C27.1657 25.6291 27.3624 25.4323 27.3624 25.1895V16.5827H28.2645V25.1828C28.2645 25.7512 29.1437 25.7512 29.1437 25.1828V16.1431C29.1437 15.9003 28.9469 15.7035 28.7041 15.7035H27.3624V7.09669C27.3624 6.85386 27.1657 6.65709 26.9228 6.65709H25.599V4.34237C25.599 4.09954 25.4022 3.90277 25.1594 3.90277H24.4916V1.81124C24.4916 1.56841 24.2948 1.37165 24.052 1.37165H19.8557C19.6129 1.37165 19.4162 1.56841 19.4162 1.81124V3.90277H18.7484C18.5056 3.90277 18.3088 4.09954 18.3088 4.34237V8.84404H17.0487V6.14177C17.0487 5.89894 16.8519 5.70218 16.6091 5.70218H12.6774C12.4346 5.70218 12.2378 5.89894 12.2378 6.14177V7.27311H10.8966V4.37419H12.6558C12.8057 4.37419 12.9453 4.29782 13.026 4.17163L14.1315 2.44514C14.3155 2.1577 14.1026 1.76852 13.7613 1.76852H13.4049C12.7504 -0.428868 8.23212 -0.427226 7.57894 1.76852H7.15277C6.81147 1.76852 6.59853 2.1577 6.78258 2.44514L7.88801 4.17163C7.96883 4.29782 8.10839 4.37419 8.25821 4.37419H10.0175V7.27305H8.67623V5.28257C8.67623 5.10486 8.5692 4.94455 8.40503 4.8765C8.2408 4.80828 8.05177 4.84591 7.92605 4.97151L4.64586 8.24702C4.56327 8.32943 4.51685 8.44132 4.51685 8.55807V12.6522L2.80244 14.3642C2.71985 14.4466 2.67343 14.5585 2.67343 14.6752V18.6785L2.01457 18.0205C1.74296 17.7494 1.26438 17.9477 1.26438 18.3316V29.2419H0.638813C0.39604 29.2419 0.199219 29.4387 0.199219 29.6815C0.199219 29.9243 0.39604 30.1211 0.638813 30.1211H29.7692C30.3369 30.1063 30.3649 29.2679 29.7692 29.2419ZM10.4919 0.990669C11.3627 0.990669 12.13 1.31767 12.441 1.76717H8.54283C8.85388 1.31767 9.62112 0.990669 10.4919 0.990669ZM7.95623 2.6477H12.9579L12.4154 3.49501H8.49875L7.95623 2.6477ZM26.4833 24.75H23.8355V7.53628H26.4833V24.75ZM20.2954 2.25084H23.6125V3.90277H20.2954V2.25084ZM19.1881 4.78196H24.7198V6.65709H23.3959C23.1531 6.65709 22.9564 6.85386 22.9564 7.09669V25.1896C22.9564 25.4324 23.1531 25.6291 23.3959 25.6291H24.6508V29.242H21.3273V25.6291H21.6251C21.8679 25.6291 22.0647 25.4324 22.0647 25.1896V23.6677C22.0647 23.4248 21.8679 23.2281 21.6251 23.2281H21.3273V18.6089H21.6251C21.8679 18.6089 22.0647 18.4122 22.0647 18.1694V16.6475C22.0647 16.4046 21.8679 16.2079 21.6251 16.2079H21.3273V11.245H21.6251C21.8679 11.245 22.0647 11.0483 22.0647 10.8055V9.28358C22.0647 9.04075 21.8679 8.84398 21.6251 8.84398H19.1881V4.78196ZM16.1696 21.3581V23.228H15.8719C15.6291 23.228 15.4323 23.4248 15.4323 23.6676V25.1895C15.4323 25.4323 15.6291 25.6291 15.8719 25.6291H16.1696V29.2419H11.5096V21.3581H16.1696ZM21.1855 9.72323V10.3659C19.5632 10.3363 17.9338 10.3363 16.3115 10.3659V9.72323H21.1855ZM20.4481 11.245V16.2079H17.0488V11.245H20.4481ZM16.3115 17.7298V17.0871H21.1855V17.7298H16.3115ZM20.4481 18.6089V23.2281H17.0488V18.6089H20.4481ZM16.3115 24.75V24.1073H21.1855V24.75H16.3115ZM17.0488 25.6291H20.4481V29.242H17.0488V25.6291ZM12.2379 8.15224V10.7997C12.2379 11.3681 13.1171 11.3681 13.1171 10.7997V6.58131H16.1696V8.84398H15.8719C15.6291 8.84398 15.4323 9.04075 15.4323 9.28358V10.8055C15.4323 11.0483 15.6291 11.245 15.8719 11.245H16.1696V16.2079H15.8719C15.6291 16.2079 15.4323 16.4046 15.4323 16.6475V18.1694C15.4323 18.4122 15.6291 18.6089 15.8719 18.6089H16.1696V20.4789H13.1171V13.1096C13.1171 12.5413 12.2379 12.5413 12.2379 13.1096V20.4789H11.07C10.8273 20.4789 10.6304 20.6757 10.6304 20.9185V29.2419H8.67629V8.15224H12.2379ZM5.39604 8.7403L7.79704 6.34275V9.37671L5.39604 11.7743V8.7403ZM3.55268 14.8574L5.26656 13.146C5.26703 13.1456 5.2675 13.1451 5.26797 13.1446L7.7971 10.6191V29.2419H5.39604V21.5794C5.39604 21.4627 5.34962 21.3508 5.26703 21.2683L3.55262 19.5564L3.55268 14.8574ZM2.14357 19.3918L2.80003 20.0473C2.80161 20.0489 2.8032 20.0505 2.80478 20.052L4.51685 21.7617V29.2419H2.14357V19.3918Z" fill="black" fill-opacity="0.65"/>
<path d="M12.756 28.0723C12.9988 28.0723 13.1956 27.8755 13.1956 27.6327V22.7333C13.1754 22.1512 12.3363 22.1516 12.3164 22.7333V27.6327C12.3164 27.8755 12.5132 28.0723 12.756 28.0723Z" fill="black" fill-opacity="0.65"/>
<path d="M18.0529 12.8538C18.6385 12.8538 18.6395 11.9746 18.0529 11.9746C17.4672 11.9746 17.4663 12.8538 18.0529 12.8538Z" fill="black" fill-opacity="0.65"/>
<path d="M18.0529 14.1663C18.6385 14.1663 18.6395 13.2871 18.0529 13.2871C17.4672 13.2871 17.4663 14.1663 18.0529 14.1663Z" fill="black" fill-opacity="0.65"/>
<path d="M18.0529 14.6006C17.4672 14.6006 17.4663 15.4798 18.0529 15.4798C18.6385 15.4798 18.6395 14.6006 18.0529 14.6006Z" fill="black" fill-opacity="0.65"/>
<path d="M19.4748 12.8538C20.0604 12.8538 20.0613 11.9746 19.4748 11.9746C18.8891 11.9746 18.8882 12.8538 19.4748 12.8538Z" fill="black" fill-opacity="0.65"/>
<path d="M19.4748 14.1663C20.0604 14.1663 20.0613 13.2871 19.4748 13.2871C18.8891 13.2871 18.8882 14.1663 19.4748 14.1663Z" fill="black" fill-opacity="0.65"/>
<path d="M19.4748 15.4798C20.0604 15.4798 20.0613 14.6006 19.4748 14.6006C18.8891 14.6006 18.8882 15.4798 19.4748 15.4798Z" fill="black" fill-opacity="0.65"/>
<path d="M18.0529 20.0452C18.6385 20.0452 18.6395 19.166 18.0529 19.166C17.4672 19.166 17.4663 20.0452 18.0529 20.0452Z" fill="black" fill-opacity="0.65"/>
<path d="M18.0529 21.3587C18.6385 21.3587 18.6395 20.4795 18.0529 20.4795C17.4672 20.4795 17.4663 21.3587 18.0529 21.3587Z" fill="black" fill-opacity="0.65"/>
<path d="M18.0529 22.6722C18.6385 22.6722 18.6395 21.793 18.0529 21.793C17.4672 21.793 17.4663 22.6722 18.0529 22.6722Z" fill="black" fill-opacity="0.65"/>
<path d="M19.4748 20.0452C20.0604 20.0452 20.0613 19.166 19.4748 19.166C18.8891 19.166 18.8882 20.0452 19.4748 20.0452Z" fill="black" fill-opacity="0.65"/>
<path d="M19.4748 21.3587C20.0604 21.3587 20.0613 20.4795 19.4748 20.4795C18.8891 20.4795 18.8882 21.3587 19.4748 21.3587Z" fill="black" fill-opacity="0.65"/>
<path d="M19.4748 22.6722C20.0604 22.6722 20.0613 21.793 19.4748 21.793C18.8891 21.793 18.8882 22.6722 19.4748 22.6722Z" fill="black" fill-opacity="0.65"/>
<path d="M5.67788 18.7521C5.92065 18.7521 6.11747 18.5553 6.11747 18.3125V14.9129C6.09731 14.3309 5.25821 14.3313 5.23828 14.9129V18.3125C5.23828 18.5552 5.4351 18.7521 5.67788 18.7521Z" fill="black" fill-opacity="0.65"/>
<path d="M24.7188 9.55848V17.0115C24.7389 17.5935 25.578 17.5931 25.5979 17.0115V9.55848C25.5778 8.9764 24.7387 8.97681 24.7188 9.55848Z" fill="black" fill-opacity="0.65"/>
<path d="M25.1583 19.166C24.9155 19.166 24.7188 19.3628 24.7188 19.6056V21.1537C24.7389 21.7358 25.578 21.7353 25.5979 21.1537V19.6056C25.5979 19.3628 25.4011 19.166 25.1583 19.166Z" fill="black" fill-opacity="0.65"/>
</svg>
